<mxfile host="app.diagrams.net" agent="Mozilla/5.0 (Windows NT 10.0; Win64; x64) AppleWebKit/537.36 (KHTML, like Gecko) Chrome/127.0.0.0 Safari/537.36" version="24.7.6" pages="2">
  <diagram name="Ventas - Actual" id="y4JAWq0EwqnSQP0sSWJy">
    <mxGraphModel dx="2625" dy="1325" grid="1" gridSize="10" guides="1" tooltips="1" connect="1" arrows="1" fold="1" page="1" pageScale="1" pageWidth="1169" pageHeight="827" math="0" shadow="0">
      <root>
        <mxCell id="0" />
        <mxCell id="1" parent="0" />
        <mxCell id="YowM3WvDs--1ctcagIH3-1" value="Flujo de Ventas en una Tienda de Abarrotes - Actual" style="shape=table;childLayout=tableLayout;startSize=40;collapsible=0;recursiveResize=0;expand=0;fontSize=16;fontStyle=1;" parent="1" vertex="1">
          <mxGeometry x="29" y="211" width="1110" height="405" as="geometry" />
        </mxCell>
        <mxCell id="YowM3WvDs--1ctcagIH3-2" value="Cliente" style="shape=tableRow;horizontal=0;swimlaneHead=0;swimlaneBody=0;top=0;left=0;strokeColor=inherit;bottom=0;right=0;dropTarget=0;fontStyle=1;fillColor=none;points=[[0,0.5],[1,0.5]];portConstraint=eastwest;startSize=40;collapsible=0;recursiveResize=0;expand=0;fontSize=16;" parent="YowM3WvDs--1ctcagIH3-1" vertex="1">
          <mxGeometry y="40" width="1110" height="200" as="geometry" />
        </mxCell>
        <mxCell id="YowM3WvDs--1ctcagIH3-3" value="Estado Inicial" style="swimlane;swimlaneHead=0;swimlaneBody=0;fontStyle=1;strokeColor=inherit;connectable=0;fillColor=none;startSize=40;collapsible=0;recursiveResize=0;expand=0;fontSize=16;" parent="YowM3WvDs--1ctcagIH3-2" vertex="1">
          <mxGeometry x="40" width="360" height="200" as="geometry">
            <mxRectangle width="360" height="200" as="alternateBounds" />
          </mxGeometry>
        </mxCell>
        <mxCell id="qH06tNpRV2XkMKS5K8XK-1" value="" style="points=[[0.145,0.145,0],[0.5,0,0],[0.855,0.145,0],[1,0.5,0],[0.855,0.855,0],[0.5,1,0],[0.145,0.855,0],[0,0.5,0]];shape=mxgraph.bpmn.event;html=1;verticalLabelPosition=bottom;labelBackgroundColor=#ffffff;verticalAlign=top;align=center;perimeter=ellipsePerimeter;outlineConnect=0;aspect=fixed;outline=standard;symbol=general;fillColor=#f8cecc;strokeColor=#b85450;" parent="YowM3WvDs--1ctcagIH3-3" vertex="1">
          <mxGeometry x="7" y="51" width="50" height="50" as="geometry" />
        </mxCell>
        <mxCell id="qH06tNpRV2XkMKS5K8XK-5" value="El cliente llega al establecimiento y pregunta por un producto" style="points=[[0.25,0,0],[0.5,0,0],[0.75,0,0],[1,0.25,0],[1,0.5,0],[1,0.75,0],[0.75,1,0],[0.5,1,0],[0.25,1,0],[0,0.75,0],[0,0.5,0],[0,0.25,0]];shape=mxgraph.bpmn.task;whiteSpace=wrap;rectStyle=rounded;size=10;html=1;container=1;expand=0;collapsible=0;taskMarker=abstract;fontSize=10;fillColor=#fff2cc;strokeColor=#d6b656;" parent="YowM3WvDs--1ctcagIH3-3" vertex="1">
          <mxGeometry x="88" y="47.5" width="137" height="57" as="geometry" />
        </mxCell>
        <mxCell id="c6DJotD48hHEf-6OC6AQ-1" style="edgeStyle=orthogonalEdgeStyle;rounded=0;orthogonalLoop=1;jettySize=auto;html=1;exitX=1;exitY=0.5;exitDx=0;exitDy=0;exitPerimeter=0;entryX=0;entryY=0.5;entryDx=0;entryDy=0;entryPerimeter=0;endArrow=openThin;endFill=0;" edge="1" parent="YowM3WvDs--1ctcagIH3-3" source="qH06tNpRV2XkMKS5K8XK-1" target="qH06tNpRV2XkMKS5K8XK-5">
          <mxGeometry relative="1" as="geometry" />
        </mxCell>
        <mxCell id="c6DJotD48hHEf-6OC6AQ-4" value="El empleado informa al cliente que el producto no estÃ¡ disponible" style="points=[[0.25,0,0],[0.5,0,0],[0.75,0,0],[1,0.25,0],[1,0.5,0],[1,0.75,0],[0.75,1,0],[0.5,1,0],[0.25,1,0],[0,0.75,0],[0,0.5,0],[0,0.25,0]];shape=mxgraph.bpmn.task;whiteSpace=wrap;rectStyle=rounded;size=10;html=1;container=1;expand=0;collapsible=0;taskMarker=abstract;fontSize=10;fillColor=#fff2cc;strokeColor=#d6b656;" vertex="1" parent="YowM3WvDs--1ctcagIH3-3">
          <mxGeometry x="265" y="143" width="116" height="57" as="geometry" />
        </mxCell>
        <mxCell id="c6DJotD48hHEf-6OC6AQ-33" value="" style="points=[[0.145,0.145,0],[0.5,0,0],[0.855,0.145,0],[1,0.5,0],[0.855,0.855,0],[0.5,1,0],[0.145,0.855,0],[0,0.5,0]];shape=mxgraph.bpmn.event;html=1;verticalLabelPosition=bottom;labelBackgroundColor=#ffffff;verticalAlign=top;align=center;perimeter=ellipsePerimeter;outlineConnect=0;aspect=fixed;outline=throwing;symbol=general;fillColor=#f8cecc;strokeColor=#b85450;" vertex="1" parent="YowM3WvDs--1ctcagIH3-3">
          <mxGeometry x="298" y="51" width="50" height="50" as="geometry" />
        </mxCell>
        <mxCell id="c6DJotD48hHEf-6OC6AQ-34" style="edgeStyle=orthogonalEdgeStyle;rounded=0;orthogonalLoop=1;jettySize=auto;html=1;exitX=0.5;exitY=0;exitDx=0;exitDy=0;exitPerimeter=0;entryX=0.5;entryY=1;entryDx=0;entryDy=0;entryPerimeter=0;endArrow=openThin;endFill=0;" edge="1" parent="YowM3WvDs--1ctcagIH3-3" source="c6DJotD48hHEf-6OC6AQ-4" target="c6DJotD48hHEf-6OC6AQ-33">
          <mxGeometry relative="1" as="geometry" />
        </mxCell>
        <mxCell id="YowM3WvDs--1ctcagIH3-4" value="Estado Intermedio" style="swimlane;swimlaneHead=0;swimlaneBody=0;fontStyle=1;strokeColor=inherit;connectable=0;fillColor=none;startSize=40;collapsible=0;recursiveResize=0;expand=0;fontSize=16;" parent="YowM3WvDs--1ctcagIH3-2" vertex="1">
          <mxGeometry x="400" width="355" height="200" as="geometry">
            <mxRectangle width="355" height="200" as="alternateBounds" />
          </mxGeometry>
        </mxCell>
        <mxCell id="c6DJotD48hHEf-6OC6AQ-8" value="El cliente pregunta&amp;nbsp;por el precio del producto" style="points=[[0.25,0,0],[0.5,0,0],[0.75,0,0],[1,0.25,0],[1,0.5,0],[1,0.75,0],[0.75,1,0],[0.5,1,0],[0.25,1,0],[0,0.75,0],[0,0.5,0],[0,0.25,0]];shape=mxgraph.bpmn.task;whiteSpace=wrap;rectStyle=rounded;size=10;html=1;container=1;expand=0;collapsible=0;taskMarker=abstract;fontSize=10;fillColor=#fff2cc;strokeColor=#d6b656;" vertex="1" parent="YowM3WvDs--1ctcagIH3-4">
          <mxGeometry x="90" y="51" width="90" height="57" as="geometry" />
        </mxCell>
        <mxCell id="c6DJotD48hHEf-6OC6AQ-37" value="Comprar" style="points=[[0.25,0.25,0],[0.5,0,0],[0.75,0.25,0],[1,0.5,0],[0.75,0.75,0],[0.5,1,0],[0.25,0.75,0],[0,0.5,0]];shape=mxgraph.bpmn.gateway2;html=1;verticalLabelPosition=top;labelBackgroundColor=#ffffff;verticalAlign=bottom;align=center;perimeter=rhombusPerimeter;outlineConnect=0;outline=none;symbol=none;fillColor=#d5e8d4;strokeColor=#82b366;labelPosition=center;" vertex="1" parent="YowM3WvDs--1ctcagIH3-4">
          <mxGeometry x="260" y="61" width="46" height="47" as="geometry" />
        </mxCell>
        <mxCell id="c6DJotD48hHEf-6OC6AQ-56" value="" style="points=[[0.145,0.145,0],[0.5,0,0],[0.855,0.145,0],[1,0.5,0],[0.855,0.855,0],[0.5,1,0],[0.145,0.855,0],[0,0.5,0]];shape=mxgraph.bpmn.event;html=1;verticalLabelPosition=bottom;labelBackgroundColor=#ffffff;verticalAlign=top;align=center;perimeter=ellipsePerimeter;outlineConnect=0;aspect=fixed;outline=throwing;symbol=general;fillColor=#f8cecc;strokeColor=#b85450;" vertex="1" parent="YowM3WvDs--1ctcagIH3-4">
          <mxGeometry x="200" y="129" width="50" height="50" as="geometry" />
        </mxCell>
        <mxCell id="c6DJotD48hHEf-6OC6AQ-57" style="edgeStyle=orthogonalEdgeStyle;rounded=0;orthogonalLoop=1;jettySize=auto;html=1;exitX=0;exitY=0.5;exitDx=0;exitDy=0;exitPerimeter=0;entryX=0.5;entryY=0;entryDx=0;entryDy=0;entryPerimeter=0;endArrow=openThin;endFill=0;" edge="1" parent="YowM3WvDs--1ctcagIH3-4" source="c6DJotD48hHEf-6OC6AQ-37" target="c6DJotD48hHEf-6OC6AQ-56">
          <mxGeometry relative="1" as="geometry" />
        </mxCell>
        <mxCell id="c6DJotD48hHEf-6OC6AQ-58" value="No" style="edgeLabel;html=1;align=center;verticalAlign=middle;resizable=0;points=[];" vertex="1" connectable="0" parent="c6DJotD48hHEf-6OC6AQ-57">
          <mxGeometry x="0.1866" y="1" relative="1" as="geometry">
            <mxPoint x="-1" y="4" as="offset" />
          </mxGeometry>
        </mxCell>
        <mxCell id="YowM3WvDs--1ctcagIH3-5" value="Estado Final" style="swimlane;swimlaneHead=0;swimlaneBody=0;fontStyle=1;strokeColor=inherit;connectable=0;fillColor=none;startSize=40;collapsible=0;recursiveResize=0;expand=0;fontSize=16;" parent="YowM3WvDs--1ctcagIH3-2" vertex="1">
          <mxGeometry x="755" width="355" height="200" as="geometry">
            <mxRectangle width="355" height="200" as="alternateBounds" />
          </mxGeometry>
        </mxCell>
        <mxCell id="c6DJotD48hHEf-6OC6AQ-26" value="El cliente realiza el pago del producto" style="points=[[0.25,0,0],[0.5,0,0],[0.75,0,0],[1,0.25,0],[1,0.5,0],[1,0.75,0],[0.75,1,0],[0.5,1,0],[0.25,1,0],[0,0.75,0],[0,0.5,0],[0,0.25,0]];shape=mxgraph.bpmn.task;whiteSpace=wrap;rectStyle=rounded;size=10;html=1;container=1;expand=0;collapsible=0;taskMarker=abstract;fontSize=10;fillColor=#fff2cc;strokeColor=#d6b656;" vertex="1" parent="YowM3WvDs--1ctcagIH3-5">
          <mxGeometry x="19" y="56" width="81" height="57" as="geometry" />
        </mxCell>
        <mxCell id="c6DJotD48hHEf-6OC6AQ-27" style="edgeStyle=orthogonalEdgeStyle;rounded=0;orthogonalLoop=1;jettySize=auto;html=1;exitX=1;exitY=0.5;exitDx=0;exitDy=0;exitPerimeter=0;entryX=0;entryY=0.5;entryDx=0;entryDy=0;entryPerimeter=0;endArrow=openThin;endFill=0;" edge="1" parent="YowM3WvDs--1ctcagIH3-2" source="c6DJotD48hHEf-6OC6AQ-37" target="c6DJotD48hHEf-6OC6AQ-26">
          <mxGeometry relative="1" as="geometry">
            <mxPoint x="730" y="79.50000000000011" as="sourcePoint" />
          </mxGeometry>
        </mxCell>
        <mxCell id="c6DJotD48hHEf-6OC6AQ-40" value="Si" style="edgeLabel;html=1;align=center;verticalAlign=middle;resizable=0;points=[];" vertex="1" connectable="0" parent="c6DJotD48hHEf-6OC6AQ-27">
          <mxGeometry x="-0.2843" relative="1" as="geometry">
            <mxPoint x="6" as="offset" />
          </mxGeometry>
        </mxCell>
        <mxCell id="YowM3WvDs--1ctcagIH3-6" value="Empleado" style="shape=tableRow;horizontal=0;swimlaneHead=0;swimlaneBody=0;top=0;left=0;strokeColor=inherit;bottom=0;right=0;dropTarget=0;fontStyle=1;fillColor=none;points=[[0,0.5],[1,0.5]];portConstraint=eastwest;startSize=40;collapsible=0;recursiveResize=0;expand=0;fontSize=16;" parent="YowM3WvDs--1ctcagIH3-1" vertex="1">
          <mxGeometry y="240" width="1110" height="165" as="geometry" />
        </mxCell>
        <mxCell id="YowM3WvDs--1ctcagIH3-7" value="" style="swimlane;swimlaneHead=0;swimlaneBody=0;fontStyle=1;connectable=0;strokeColor=inherit;fillColor=none;startSize=0;collapsible=0;recursiveResize=0;expand=0;fontSize=16;" parent="YowM3WvDs--1ctcagIH3-6" vertex="1">
          <mxGeometry x="40" width="360" height="165" as="geometry">
            <mxRectangle width="360" height="165" as="alternateBounds" />
          </mxGeometry>
        </mxCell>
        <mxCell id="c6DJotD48hHEf-6OC6AQ-2" value="El empleado verifica y confirma la disponibilidad del producto" style="points=[[0.25,0,0],[0.5,0,0],[0.75,0,0],[1,0.25,0],[1,0.5,0],[1,0.75,0],[0.75,1,0],[0.5,1,0],[0.25,1,0],[0,0.75,0],[0,0.5,0],[0,0.25,0]];shape=mxgraph.bpmn.task;whiteSpace=wrap;rectStyle=rounded;size=10;html=1;container=1;expand=0;collapsible=0;taskMarker=abstract;fontSize=10;fillColor=#fff2cc;strokeColor=#d6b656;" vertex="1" parent="YowM3WvDs--1ctcagIH3-7">
          <mxGeometry x="130" y="54" width="137" height="57" as="geometry" />
        </mxCell>
        <mxCell id="qH06tNpRV2XkMKS5K8XK-6" value="Disponible" style="points=[[0.25,0.25,0],[0.5,0,0],[0.75,0.25,0],[1,0.5,0],[0.75,0.75,0],[0.5,1,0],[0.25,0.75,0],[0,0.5,0]];shape=mxgraph.bpmn.gateway2;html=1;verticalLabelPosition=bottom;labelBackgroundColor=#ffffff;verticalAlign=top;align=center;perimeter=rhombusPerimeter;outlineConnect=0;outline=none;symbol=none;fillColor=#d5e8d4;strokeColor=#82b366;" parent="YowM3WvDs--1ctcagIH3-7" vertex="1">
          <mxGeometry x="300" y="89" width="46" height="47" as="geometry" />
        </mxCell>
        <mxCell id="c6DJotD48hHEf-6OC6AQ-6" style="edgeStyle=orthogonalEdgeStyle;rounded=0;orthogonalLoop=1;jettySize=auto;html=1;exitX=1;exitY=0.5;exitDx=0;exitDy=0;exitPerimeter=0;entryX=0;entryY=0.5;entryDx=0;entryDy=0;entryPerimeter=0;endArrow=openThin;endFill=0;" edge="1" parent="YowM3WvDs--1ctcagIH3-7" source="c6DJotD48hHEf-6OC6AQ-2" target="qH06tNpRV2XkMKS5K8XK-6">
          <mxGeometry relative="1" as="geometry">
            <Array as="points">
              <mxPoint x="280" y="83" />
              <mxPoint x="280" y="113" />
            </Array>
          </mxGeometry>
        </mxCell>
        <mxCell id="YowM3WvDs--1ctcagIH3-8" value="" style="swimlane;swimlaneHead=0;swimlaneBody=0;fontStyle=1;connectable=0;strokeColor=inherit;fillColor=none;startSize=0;collapsible=0;recursiveResize=0;expand=0;fontSize=16;" parent="YowM3WvDs--1ctcagIH3-6" vertex="1">
          <mxGeometry x="400" width="355" height="165" as="geometry">
            <mxRectangle width="355" height="165" as="alternateBounds" />
          </mxGeometry>
        </mxCell>
        <mxCell id="c6DJotD48hHEf-6OC6AQ-11" value="El empleado informa el precio y los medios de pago disponibles" style="points=[[0.25,0,0],[0.5,0,0],[0.75,0,0],[1,0.25,0],[1,0.5,0],[1,0.75,0],[0.75,1,0],[0.5,1,0],[0.25,1,0],[0,0.75,0],[0,0.5,0],[0,0.25,0]];shape=mxgraph.bpmn.task;whiteSpace=wrap;rectStyle=rounded;size=10;html=1;container=1;expand=0;collapsible=0;taskMarker=abstract;fontSize=10;fillColor=#fff2cc;strokeColor=#d6b656;" vertex="1" parent="YowM3WvDs--1ctcagIH3-8">
          <mxGeometry x="75" y="54" width="120" height="57" as="geometry" />
        </mxCell>
        <mxCell id="YowM3WvDs--1ctcagIH3-9" value="" style="swimlane;swimlaneHead=0;swimlaneBody=0;fontStyle=1;connectable=0;strokeColor=inherit;fillColor=none;startSize=0;collapsible=0;recursiveResize=0;expand=0;fontSize=16;" parent="YowM3WvDs--1ctcagIH3-6" vertex="1">
          <mxGeometry x="755" width="355" height="165" as="geometry">
            <mxRectangle width="355" height="165" as="alternateBounds" />
          </mxGeometry>
        </mxCell>
        <mxCell id="qH06tNpRV2XkMKS5K8XK-4" value="" style="points=[[0.145,0.145,0],[0.5,0,0],[0.855,0.145,0],[1,0.5,0],[0.855,0.855,0],[0.5,1,0],[0.145,0.855,0],[0,0.5,0]];shape=mxgraph.bpmn.event;html=1;verticalLabelPosition=bottom;labelBackgroundColor=#ffffff;verticalAlign=top;align=center;perimeter=ellipsePerimeter;outlineConnect=0;aspect=fixed;outline=throwing;symbol=general;fillColor=#f8cecc;strokeColor=#b85450;" parent="YowM3WvDs--1ctcagIH3-9" vertex="1">
          <mxGeometry x="298" y="57.5" width="50" height="50" as="geometry" />
        </mxCell>
        <mxCell id="c6DJotD48hHEf-6OC6AQ-28" value="El empleado registra manualmente la venta del producto" style="points=[[0.25,0,0],[0.5,0,0],[0.75,0,0],[1,0.25,0],[1,0.5,0],[1,0.75,0],[0.75,1,0],[0.5,1,0],[0.25,1,0],[0,0.75,0],[0,0.5,0],[0,0.25,0]];shape=mxgraph.bpmn.task;whiteSpace=wrap;rectStyle=rounded;size=10;html=1;container=1;expand=0;collapsible=0;taskMarker=abstract;fontSize=10;fillColor=#fff2cc;strokeColor=#d6b656;" vertex="1" parent="YowM3WvDs--1ctcagIH3-9">
          <mxGeometry x="14.5" y="54" width="90" height="57" as="geometry" />
        </mxCell>
        <mxCell id="c6DJotD48hHEf-6OC6AQ-29" value="El empleado actualiza el inventario en hojas de cÃ¡lculo o libros de registro" style="points=[[0.25,0,0],[0.5,0,0],[0.75,0,0],[1,0.25,0],[1,0.5,0],[1,0.75,0],[0.75,1,0],[0.5,1,0],[0.25,1,0],[0,0.75,0],[0,0.5,0],[0,0.25,0]];shape=mxgraph.bpmn.task;whiteSpace=wrap;rectStyle=rounded;size=10;html=1;container=1;expand=0;collapsible=0;taskMarker=abstract;fontSize=10;fillColor=#fff2cc;strokeColor=#d6b656;" vertex="1" parent="YowM3WvDs--1ctcagIH3-9">
          <mxGeometry x="137" y="54" width="131" height="57" as="geometry" />
        </mxCell>
        <mxCell id="c6DJotD48hHEf-6OC6AQ-31" style="edgeStyle=orthogonalEdgeStyle;rounded=1;orthogonalLoop=1;jettySize=auto;html=1;exitX=1;exitY=0.5;exitDx=0;exitDy=0;exitPerimeter=0;entryX=0;entryY=0.5;entryDx=0;entryDy=0;entryPerimeter=0;endArrow=openThin;endFill=0;curved=0;" edge="1" parent="YowM3WvDs--1ctcagIH3-9" source="c6DJotD48hHEf-6OC6AQ-29" target="qH06tNpRV2XkMKS5K8XK-4">
          <mxGeometry relative="1" as="geometry" />
        </mxCell>
        <mxCell id="c6DJotD48hHEf-6OC6AQ-32" style="edgeStyle=orthogonalEdgeStyle;rounded=0;orthogonalLoop=1;jettySize=auto;html=1;exitX=1;exitY=0.5;exitDx=0;exitDy=0;exitPerimeter=0;entryX=0;entryY=0.5;entryDx=0;entryDy=0;entryPerimeter=0;endArrow=openThin;endFill=0;" edge="1" parent="YowM3WvDs--1ctcagIH3-9" source="c6DJotD48hHEf-6OC6AQ-28" target="c6DJotD48hHEf-6OC6AQ-29">
          <mxGeometry relative="1" as="geometry" />
        </mxCell>
        <mxCell id="c6DJotD48hHEf-6OC6AQ-3" style="edgeStyle=orthogonalEdgeStyle;rounded=0;orthogonalLoop=1;jettySize=auto;html=1;entryX=0;entryY=0.5;entryDx=0;entryDy=0;entryPerimeter=0;endArrow=openThin;endFill=0;" edge="1" parent="YowM3WvDs--1ctcagIH3-1" target="c6DJotD48hHEf-6OC6AQ-2">
          <mxGeometry relative="1" as="geometry">
            <mxPoint x="150" y="145" as="sourcePoint" />
            <Array as="points">
              <mxPoint x="150" y="145" />
              <mxPoint x="150" y="323" />
            </Array>
          </mxGeometry>
        </mxCell>
        <mxCell id="c6DJotD48hHEf-6OC6AQ-5" style="edgeStyle=orthogonalEdgeStyle;rounded=0;orthogonalLoop=1;jettySize=auto;html=1;exitX=0.5;exitY=0;exitDx=0;exitDy=0;exitPerimeter=0;entryX=0.5;entryY=1;entryDx=0;entryDy=0;entryPerimeter=0;endArrow=openThin;endFill=0;" edge="1" parent="YowM3WvDs--1ctcagIH3-1" source="qH06tNpRV2XkMKS5K8XK-6" target="c6DJotD48hHEf-6OC6AQ-4">
          <mxGeometry relative="1" as="geometry" />
        </mxCell>
        <mxCell id="c6DJotD48hHEf-6OC6AQ-7" value="&lt;font style=&quot;font-size: 12px;&quot;&gt;No&lt;/font&gt;" style="edgeLabel;html=1;align=center;verticalAlign=middle;resizable=0;points=[];" vertex="1" connectable="0" parent="c6DJotD48hHEf-6OC6AQ-5">
          <mxGeometry x="0.0153" y="-3" relative="1" as="geometry">
            <mxPoint x="-3" y="-1" as="offset" />
          </mxGeometry>
        </mxCell>
        <mxCell id="c6DJotD48hHEf-6OC6AQ-9" style="edgeStyle=orthogonalEdgeStyle;rounded=0;orthogonalLoop=1;jettySize=auto;html=1;exitX=1;exitY=0.5;exitDx=0;exitDy=0;exitPerimeter=0;entryX=0;entryY=0.5;entryDx=0;entryDy=0;entryPerimeter=0;endArrow=openThin;endFill=0;" edge="1" parent="YowM3WvDs--1ctcagIH3-1" source="qH06tNpRV2XkMKS5K8XK-6" target="c6DJotD48hHEf-6OC6AQ-8">
          <mxGeometry relative="1" as="geometry">
            <Array as="points">
              <mxPoint x="450" y="353" />
              <mxPoint x="450" y="119" />
            </Array>
          </mxGeometry>
        </mxCell>
        <mxCell id="c6DJotD48hHEf-6OC6AQ-10" value="Si" style="edgeLabel;html=1;align=center;verticalAlign=middle;resizable=0;points=[];" vertex="1" connectable="0" parent="c6DJotD48hHEf-6OC6AQ-9">
          <mxGeometry x="-0.3954" y="-1" relative="1" as="geometry">
            <mxPoint x="-2" y="-134" as="offset" />
          </mxGeometry>
        </mxCell>
        <mxCell id="c6DJotD48hHEf-6OC6AQ-12" style="edgeStyle=orthogonalEdgeStyle;rounded=0;orthogonalLoop=1;jettySize=auto;html=1;exitX=0.5;exitY=1;exitDx=0;exitDy=0;exitPerimeter=0;entryX=0.5;entryY=0;entryDx=0;entryDy=0;entryPerimeter=0;endArrow=openThin;endFill=0;" edge="1" parent="YowM3WvDs--1ctcagIH3-1" source="c6DJotD48hHEf-6OC6AQ-8" target="c6DJotD48hHEf-6OC6AQ-11">
          <mxGeometry relative="1" as="geometry" />
        </mxCell>
        <mxCell id="c6DJotD48hHEf-6OC6AQ-30" style="edgeStyle=orthogonalEdgeStyle;rounded=0;orthogonalLoop=1;jettySize=auto;html=1;exitX=0.5;exitY=1;exitDx=0;exitDy=0;exitPerimeter=0;entryX=0.5;entryY=0;entryDx=0;entryDy=0;entryPerimeter=0;endArrow=openThin;endFill=0;" edge="1" parent="YowM3WvDs--1ctcagIH3-1" source="c6DJotD48hHEf-6OC6AQ-26" target="c6DJotD48hHEf-6OC6AQ-28">
          <mxGeometry relative="1" as="geometry" />
        </mxCell>
        <mxCell id="c6DJotD48hHEf-6OC6AQ-39" style="edgeStyle=orthogonalEdgeStyle;rounded=0;orthogonalLoop=1;jettySize=auto;html=1;exitX=1;exitY=0.5;exitDx=0;exitDy=0;exitPerimeter=0;entryX=0.5;entryY=1;entryDx=0;entryDy=0;entryPerimeter=0;endArrow=openThin;endFill=0;" edge="1" parent="YowM3WvDs--1ctcagIH3-1" source="c6DJotD48hHEf-6OC6AQ-11" target="c6DJotD48hHEf-6OC6AQ-37">
          <mxGeometry relative="1" as="geometry" />
        </mxCell>
      </root>
    </mxGraphModel>
  </diagram>
  <diagram id="QZqGCVmlVVsVIgw5rEYb" name="Ventas - Objetivo">
    <mxGraphModel dx="1167" dy="589" grid="1" gridSize="10" guides="1" tooltips="1" connect="1" arrows="1" fold="1" page="1" pageScale="1" pageWidth="1169" pageHeight="827" math="0" shadow="0">
      <root>
        <mxCell id="0" />
        <mxCell id="1" parent="0" />
        <mxCell id="jPvHXAxI15iKDXhC4mtu-1" value="Flujo de Ventas en una Tienda de Abarrotes - Actual" style="shape=table;childLayout=tableLayout;startSize=40;collapsible=0;recursiveResize=0;expand=0;fontSize=16;fontStyle=1;" vertex="1" parent="1">
          <mxGeometry x="30" y="211" width="1110" height="405" as="geometry" />
        </mxCell>
        <mxCell id="jPvHXAxI15iKDXhC4mtu-2" value="Cliente" style="shape=tableRow;horizontal=0;swimlaneHead=0;swimlaneBody=0;top=0;left=0;strokeColor=inherit;bottom=0;right=0;dropTarget=0;fontStyle=1;fillColor=none;points=[[0,0.5],[1,0.5]];portConstraint=eastwest;startSize=40;collapsible=0;recursiveResize=0;expand=0;fontSize=16;" vertex="1" parent="jPvHXAxI15iKDXhC4mtu-1">
          <mxGeometry y="40" width="1110" height="200" as="geometry" />
        </mxCell>
        <mxCell id="jPvHXAxI15iKDXhC4mtu-3" value="Estado Inicial" style="swimlane;swimlaneHead=0;swimlaneBody=0;fontStyle=1;strokeColor=inherit;connectable=0;fillColor=none;startSize=40;collapsible=0;recursiveResize=0;expand=0;fontSize=16;" vertex="1" parent="jPvHXAxI15iKDXhC4mtu-2">
          <mxGeometry x="40" width="360" height="200" as="geometry">
            <mxRectangle width="360" height="200" as="alternateBounds" />
          </mxGeometry>
        </mxCell>
        <mxCell id="jPvHXAxI15iKDXhC4mtu-4" value="" style="points=[[0.145,0.145,0],[0.5,0,0],[0.855,0.145,0],[1,0.5,0],[0.855,0.855,0],[0.5,1,0],[0.145,0.855,0],[0,0.5,0]];shape=mxgraph.bpmn.event;html=1;verticalLabelPosition=bottom;labelBackgroundColor=#ffffff;verticalAlign=top;align=center;perimeter=ellipsePerimeter;outlineConnect=0;aspect=fixed;outline=standard;symbol=general;fillColor=#f8cecc;strokeColor=#b85450;" vertex="1" parent="jPvHXAxI15iKDXhC4mtu-3">
          <mxGeometry x="7" y="51" width="50" height="50" as="geometry" />
        </mxCell>
        <mxCell id="jPvHXAxI15iKDXhC4mtu-5" value="El cliente llega al establecimiento y pregunta por un producto" style="points=[[0.25,0,0],[0.5,0,0],[0.75,0,0],[1,0.25,0],[1,0.5,0],[1,0.75,0],[0.75,1,0],[0.5,1,0],[0.25,1,0],[0,0.75,0],[0,0.5,0],[0,0.25,0]];shape=mxgraph.bpmn.task;whiteSpace=wrap;rectStyle=rounded;size=10;html=1;container=1;expand=0;collapsible=0;taskMarker=abstract;fontSize=10;fillColor=#fff2cc;strokeColor=#d6b656;" vertex="1" parent="jPvHXAxI15iKDXhC4mtu-3">
          <mxGeometry x="88" y="47.5" width="137" height="57" as="geometry" />
        </mxCell>
        <mxCell id="jPvHXAxI15iKDXhC4mtu-6" style="edgeStyle=orthogonalEdgeStyle;rounded=0;orthogonalLoop=1;jettySize=auto;html=1;exitX=1;exitY=0.5;exitDx=0;exitDy=0;exitPerimeter=0;entryX=0;entryY=0.5;entryDx=0;entryDy=0;entryPerimeter=0;endArrow=openThin;endFill=0;" edge="1" parent="jPvHXAxI15iKDXhC4mtu-3" source="jPvHXAxI15iKDXhC4mtu-4" target="jPvHXAxI15iKDXhC4mtu-5">
          <mxGeometry relative="1" as="geometry" />
        </mxCell>
        <mxCell id="jPvHXAxI15iKDXhC4mtu-7" value="El empleado informa al cliente que el producto no estÃ¡ disponible" style="points=[[0.25,0,0],[0.5,0,0],[0.75,0,0],[1,0.25,0],[1,0.5,0],[1,0.75,0],[0.75,1,0],[0.5,1,0],[0.25,1,0],[0,0.75,0],[0,0.5,0],[0,0.25,0]];shape=mxgraph.bpmn.task;whiteSpace=wrap;rectStyle=rounded;size=10;html=1;container=1;expand=0;collapsible=0;taskMarker=abstract;fontSize=10;fillColor=#fff2cc;strokeColor=#d6b656;" vertex="1" parent="jPvHXAxI15iKDXhC4mtu-3">
          <mxGeometry x="265" y="143" width="116" height="57" as="geometry" />
        </mxCell>
        <mxCell id="jPvHXAxI15iKDXhC4mtu-8" value="" style="points=[[0.145,0.145,0],[0.5,0,0],[0.855,0.145,0],[1,0.5,0],[0.855,0.855,0],[0.5,1,0],[0.145,0.855,0],[0,0.5,0]];shape=mxgraph.bpmn.event;html=1;verticalLabelPosition=bottom;labelBackgroundColor=#ffffff;verticalAlign=top;align=center;perimeter=ellipsePerimeter;outlineConnect=0;aspect=fixed;outline=throwing;symbol=general;fillColor=#f8cecc;strokeColor=#b85450;" vertex="1" parent="jPvHXAxI15iKDXhC4mtu-3">
          <mxGeometry x="298" y="51" width="50" height="50" as="geometry" />
        </mxCell>
        <mxCell id="jPvHXAxI15iKDXhC4mtu-9" style="edgeStyle=orthogonalEdgeStyle;rounded=0;orthogonalLoop=1;jettySize=auto;html=1;exitX=0.5;exitY=0;exitDx=0;exitDy=0;exitPerimeter=0;entryX=0.5;entryY=1;entryDx=0;entryDy=0;entryPerimeter=0;endArrow=openThin;endFill=0;" edge="1" parent="jPvHXAxI15iKDXhC4mtu-3" source="jPvHXAxI15iKDXhC4mtu-7" target="jPvHXAxI15iKDXhC4mtu-8">
          <mxGeometry relative="1" as="geometry" />
        </mxCell>
        <mxCell id="jPvHXAxI15iKDXhC4mtu-10" value="Estado Intermedio" style="swimlane;swimlaneHead=0;swimlaneBody=0;fontStyle=1;strokeColor=inherit;connectable=0;fillColor=none;startSize=40;collapsible=0;recursiveResize=0;expand=0;fontSize=16;" vertex="1" parent="jPvHXAxI15iKDXhC4mtu-2">
          <mxGeometry x="400" width="355" height="200" as="geometry">
            <mxRectangle width="355" height="200" as="alternateBounds" />
          </mxGeometry>
        </mxCell>
        <mxCell id="jPvHXAxI15iKDXhC4mtu-11" value="El cliente pregunta&amp;nbsp;por el precio del producto" style="points=[[0.25,0,0],[0.5,0,0],[0.75,0,0],[1,0.25,0],[1,0.5,0],[1,0.75,0],[0.75,1,0],[0.5,1,0],[0.25,1,0],[0,0.75,0],[0,0.5,0],[0,0.25,0]];shape=mxgraph.bpmn.task;whiteSpace=wrap;rectStyle=rounded;size=10;html=1;container=1;expand=0;collapsible=0;taskMarker=abstract;fontSize=10;fillColor=#fff2cc;strokeColor=#d6b656;" vertex="1" parent="jPvHXAxI15iKDXhC4mtu-10">
          <mxGeometry x="90" y="51" width="90" height="57" as="geometry" />
        </mxCell>
        <mxCell id="jPvHXAxI15iKDXhC4mtu-12" value="Comprar" style="points=[[0.25,0.25,0],[0.5,0,0],[0.75,0.25,0],[1,0.5,0],[0.75,0.75,0],[0.5,1,0],[0.25,0.75,0],[0,0.5,0]];shape=mxgraph.bpmn.gateway2;html=1;verticalLabelPosition=top;labelBackgroundColor=#ffffff;verticalAlign=bottom;align=center;perimeter=rhombusPerimeter;outlineConnect=0;outline=none;symbol=none;fillColor=#d5e8d4;strokeColor=#82b366;labelPosition=center;" vertex="1" parent="jPvHXAxI15iKDXhC4mtu-10">
          <mxGeometry x="260" y="61" width="46" height="47" as="geometry" />
        </mxCell>
        <mxCell id="jPvHXAxI15iKDXhC4mtu-13" value="" style="points=[[0.145,0.145,0],[0.5,0,0],[0.855,0.145,0],[1,0.5,0],[0.855,0.855,0],[0.5,1,0],[0.145,0.855,0],[0,0.5,0]];shape=mxgraph.bpmn.event;html=1;verticalLabelPosition=bottom;labelBackgroundColor=#ffffff;verticalAlign=top;align=center;perimeter=ellipsePerimeter;outlineConnect=0;aspect=fixed;outline=throwing;symbol=general;fillColor=#f8cecc;strokeColor=#b85450;" vertex="1" parent="jPvHXAxI15iKDXhC4mtu-10">
          <mxGeometry x="200" y="129" width="50" height="50" as="geometry" />
        </mxCell>
        <mxCell id="jPvHXAxI15iKDXhC4mtu-14" style="edgeStyle=orthogonalEdgeStyle;rounded=0;orthogonalLoop=1;jettySize=auto;html=1;exitX=0;exitY=0.5;exitDx=0;exitDy=0;exitPerimeter=0;entryX=0.5;entryY=0;entryDx=0;entryDy=0;entryPerimeter=0;endArrow=openThin;endFill=0;" edge="1" parent="jPvHXAxI15iKDXhC4mtu-10" source="jPvHXAxI15iKDXhC4mtu-12" target="jPvHXAxI15iKDXhC4mtu-13">
          <mxGeometry relative="1" as="geometry" />
        </mxCell>
        <mxCell id="jPvHXAxI15iKDXhC4mtu-15" value="No" style="edgeLabel;html=1;align=center;verticalAlign=middle;resizable=0;points=[];" vertex="1" connectable="0" parent="jPvHXAxI15iKDXhC4mtu-14">
          <mxGeometry x="0.1866" y="1" relative="1" as="geometry">
            <mxPoint x="-1" y="4" as="offset" />
          </mxGeometry>
        </mxCell>
        <mxCell id="jPvHXAxI15iKDXhC4mtu-16" value="Estado Final" style="swimlane;swimlaneHead=0;swimlaneBody=0;fontStyle=1;strokeColor=inherit;connectable=0;fillColor=none;startSize=40;collapsible=0;recursiveResize=0;expand=0;fontSize=16;" vertex="1" parent="jPvHXAxI15iKDXhC4mtu-2">
          <mxGeometry x="755" width="355" height="200" as="geometry">
            <mxRectangle width="355" height="200" as="alternateBounds" />
          </mxGeometry>
        </mxCell>
        <mxCell id="jPvHXAxI15iKDXhC4mtu-17" value="El cliente realiza el pago del producto" style="points=[[0.25,0,0],[0.5,0,0],[0.75,0,0],[1,0.25,0],[1,0.5,0],[1,0.75,0],[0.75,1,0],[0.5,1,0],[0.25,1,0],[0,0.75,0],[0,0.5,0],[0,0.25,0]];shape=mxgraph.bpmn.task;whiteSpace=wrap;rectStyle=rounded;size=10;html=1;container=1;expand=0;collapsible=0;taskMarker=abstract;fontSize=10;fillColor=#fff2cc;strokeColor=#d6b656;" vertex="1" parent="jPvHXAxI15iKDXhC4mtu-16">
          <mxGeometry x="36.25" y="56" width="81" height="57" as="geometry" />
        </mxCell>
        <mxCell id="jPvHXAxI15iKDXhC4mtu-18" style="edgeStyle=orthogonalEdgeStyle;rounded=0;orthogonalLoop=1;jettySize=auto;html=1;exitX=1;exitY=0.5;exitDx=0;exitDy=0;exitPerimeter=0;entryX=0;entryY=0.5;entryDx=0;entryDy=0;entryPerimeter=0;endArrow=openThin;endFill=0;" edge="1" parent="jPvHXAxI15iKDXhC4mtu-2" source="jPvHXAxI15iKDXhC4mtu-12" target="jPvHXAxI15iKDXhC4mtu-17">
          <mxGeometry relative="1" as="geometry">
            <mxPoint x="730" y="79.50000000000011" as="sourcePoint" />
          </mxGeometry>
        </mxCell>
        <mxCell id="jPvHXAxI15iKDXhC4mtu-19" value="Si" style="edgeLabel;html=1;align=center;verticalAlign=middle;resizable=0;points=[];" vertex="1" connectable="0" parent="jPvHXAxI15iKDXhC4mtu-18">
          <mxGeometry x="-0.2843" relative="1" as="geometry">
            <mxPoint x="6" as="offset" />
          </mxGeometry>
        </mxCell>
        <mxCell id="jPvHXAxI15iKDXhC4mtu-20" value="Empleado" style="shape=tableRow;horizontal=0;swimlaneHead=0;swimlaneBody=0;top=0;left=0;strokeColor=inherit;bottom=0;right=0;dropTarget=0;fontStyle=1;fillColor=none;points=[[0,0.5],[1,0.5]];portConstraint=eastwest;startSize=40;collapsible=0;recursiveResize=0;expand=0;fontSize=16;" vertex="1" parent="jPvHXAxI15iKDXhC4mtu-1">
          <mxGeometry y="240" width="1110" height="165" as="geometry" />
        </mxCell>
        <mxCell id="jPvHXAxI15iKDXhC4mtu-21" value="" style="swimlane;swimlaneHead=0;swimlaneBody=0;fontStyle=1;connectable=0;strokeColor=inherit;fillColor=none;startSize=0;collapsible=0;recursiveResize=0;expand=0;fontSize=16;" vertex="1" parent="jPvHXAxI15iKDXhC4mtu-20">
          <mxGeometry x="40" width="360" height="165" as="geometry">
            <mxRectangle width="360" height="165" as="alternateBounds" />
          </mxGeometry>
        </mxCell>
        <mxCell id="jPvHXAxI15iKDXhC4mtu-22" value="El empleado verifica y confirma la disponibilidad del producto" style="points=[[0.25,0,0],[0.5,0,0],[0.75,0,0],[1,0.25,0],[1,0.5,0],[1,0.75,0],[0.75,1,0],[0.5,1,0],[0.25,1,0],[0,0.75,0],[0,0.5,0],[0,0.25,0]];shape=mxgraph.bpmn.task;whiteSpace=wrap;rectStyle=rounded;size=10;html=1;container=1;expand=0;collapsible=0;taskMarker=abstract;fontSize=10;fillColor=#fff2cc;strokeColor=#d6b656;" vertex="1" parent="jPvHXAxI15iKDXhC4mtu-21">
          <mxGeometry x="130" y="54" width="137" height="57" as="geometry" />
        </mxCell>
        <mxCell id="jPvHXAxI15iKDXhC4mtu-23" value="Disponible" style="points=[[0.25,0.25,0],[0.5,0,0],[0.75,0.25,0],[1,0.5,0],[0.75,0.75,0],[0.5,1,0],[0.25,0.75,0],[0,0.5,0]];shape=mxgraph.bpmn.gateway2;html=1;verticalLabelPosition=bottom;labelBackgroundColor=#ffffff;verticalAlign=top;align=center;perimeter=rhombusPerimeter;outlineConnect=0;outline=none;symbol=none;fillColor=#d5e8d4;strokeColor=#82b366;" vertex="1" parent="jPvHXAxI15iKDXhC4mtu-21">
          <mxGeometry x="300" y="89" width="46" height="47" as="geometry" />
        </mxCell>
        <mxCell id="jPvHXAxI15iKDXhC4mtu-24" style="edgeStyle=orthogonalEdgeStyle;rounded=0;orthogonalLoop=1;jettySize=auto;html=1;exitX=1;exitY=0.5;exitDx=0;exitDy=0;exitPerimeter=0;entryX=0;entryY=0.5;entryDx=0;entryDy=0;entryPerimeter=0;endArrow=openThin;endFill=0;" edge="1" parent="jPvHXAxI15iKDXhC4mtu-21" source="jPvHXAxI15iKDXhC4mtu-22" target="jPvHXAxI15iKDXhC4mtu-23">
          <mxGeometry relative="1" as="geometry">
            <Array as="points">
              <mxPoint x="280" y="83" />
              <mxPoint x="280" y="113" />
            </Array>
          </mxGeometry>
        </mxCell>
        <mxCell id="jPvHXAxI15iKDXhC4mtu-25" value="" style="swimlane;swimlaneHead=0;swimlaneBody=0;fontStyle=1;connectable=0;strokeColor=inherit;fillColor=none;startSize=0;collapsible=0;recursiveResize=0;expand=0;fontSize=16;" vertex="1" parent="jPvHXAxI15iKDXhC4mtu-20">
          <mxGeometry x="400" width="355" height="165" as="geometry">
            <mxRectangle width="355" height="165" as="alternateBounds" />
          </mxGeometry>
        </mxCell>
        <mxCell id="jPvHXAxI15iKDXhC4mtu-26" value="El empleado informa el precio y los medios de pago disponibles" style="points=[[0.25,0,0],[0.5,0,0],[0.75,0,0],[1,0.25,0],[1,0.5,0],[1,0.75,0],[0.75,1,0],[0.5,1,0],[0.25,1,0],[0,0.75,0],[0,0.5,0],[0,0.25,0]];shape=mxgraph.bpmn.task;whiteSpace=wrap;rectStyle=rounded;size=10;html=1;container=1;expand=0;collapsible=0;taskMarker=abstract;fontSize=10;fillColor=#fff2cc;strokeColor=#d6b656;" vertex="1" parent="jPvHXAxI15iKDXhC4mtu-25">
          <mxGeometry x="75" y="54" width="120" height="57" as="geometry" />
        </mxCell>
        <mxCell id="jPvHXAxI15iKDXhC4mtu-27" value="" style="swimlane;swimlaneHead=0;swimlaneBody=0;fontStyle=1;connectable=0;strokeColor=inherit;fillColor=none;startSize=0;collapsible=0;recursiveResize=0;expand=0;fontSize=16;" vertex="1" parent="jPvHXAxI15iKDXhC4mtu-20">
          <mxGeometry x="755" width="355" height="165" as="geometry">
            <mxRectangle width="355" height="165" as="alternateBounds" />
          </mxGeometry>
        </mxCell>
        <mxCell id="jPvHXAxI15iKDXhC4mtu-28" value="" style="points=[[0.145,0.145,0],[0.5,0,0],[0.855,0.145,0],[1,0.5,0],[0.855,0.855,0],[0.5,1,0],[0.145,0.855,0],[0,0.5,0]];shape=mxgraph.bpmn.event;html=1;verticalLabelPosition=bottom;labelBackgroundColor=#ffffff;verticalAlign=top;align=center;perimeter=ellipsePerimeter;outlineConnect=0;aspect=fixed;outline=throwing;symbol=general;fillColor=#f8cecc;strokeColor=#b85450;" vertex="1" parent="jPvHXAxI15iKDXhC4mtu-27">
          <mxGeometry x="298" y="57.5" width="50" height="50" as="geometry" />
        </mxCell>
        <mxCell id="jPvHXAxI15iKDXhC4mtu-29" value="El empleado registra la venta en el sistema, actualizando el inventario en tiempo real" style="points=[[0.25,0,0],[0.5,0,0],[0.75,0,0],[1,0.25,0],[1,0.5,0],[1,0.75,0],[0.75,1,0],[0.5,1,0],[0.25,1,0],[0,0.75,0],[0,0.5,0],[0,0.25,0]];shape=mxgraph.bpmn.task;whiteSpace=wrap;rectStyle=rounded;size=10;html=1;container=1;expand=0;collapsible=0;taskMarker=abstract;fontSize=10;fillColor=#fff2cc;strokeColor=#d6b656;" vertex="1" parent="jPvHXAxI15iKDXhC4mtu-27">
          <mxGeometry x="19" y="54" width="115.5" height="57" as="geometry" />
        </mxCell>
        <mxCell id="jPvHXAxI15iKDXhC4mtu-30" value="El sistema envia notificaciones de stock bajo para reabastecimiento&amp;nbsp;" style="points=[[0.25,0,0],[0.5,0,0],[0.75,0,0],[1,0.25,0],[1,0.5,0],[1,0.75,0],[0.75,1,0],[0.5,1,0],[0.25,1,0],[0,0.75,0],[0,0.5,0],[0,0.25,0]];shape=mxgraph.bpmn.task;whiteSpace=wrap;rectStyle=rounded;size=10;html=1;container=1;expand=0;collapsible=0;taskMarker=abstract;fontSize=10;fillColor=#fff2cc;strokeColor=#d6b656;" vertex="1" parent="jPvHXAxI15iKDXhC4mtu-27">
          <mxGeometry x="160" y="54" width="108" height="57" as="geometry" />
        </mxCell>
        <mxCell id="jPvHXAxI15iKDXhC4mtu-31" style="edgeStyle=orthogonalEdgeStyle;rounded=1;orthogonalLoop=1;jettySize=auto;html=1;exitX=1;exitY=0.5;exitDx=0;exitDy=0;exitPerimeter=0;entryX=0;entryY=0.5;entryDx=0;entryDy=0;entryPerimeter=0;endArrow=openThin;endFill=0;curved=0;" edge="1" parent="jPvHXAxI15iKDXhC4mtu-27" source="jPvHXAxI15iKDXhC4mtu-30" target="jPvHXAxI15iKDXhC4mtu-28">
          <mxGeometry relative="1" as="geometry" />
        </mxCell>
        <mxCell id="jPvHXAxI15iKDXhC4mtu-32" style="edgeStyle=orthogonalEdgeStyle;rounded=0;orthogonalLoop=1;jettySize=auto;html=1;exitX=1;exitY=0.5;exitDx=0;exitDy=0;exitPerimeter=0;entryX=0;entryY=0.5;entryDx=0;entryDy=0;entryPerimeter=0;endArrow=openThin;endFill=0;" edge="1" parent="jPvHXAxI15iKDXhC4mtu-27" source="jPvHXAxI15iKDXhC4mtu-29" target="jPvHXAxI15iKDXhC4mtu-30">
          <mxGeometry relative="1" as="geometry" />
        </mxCell>
        <mxCell id="jPvHXAxI15iKDXhC4mtu-33" style="edgeStyle=orthogonalEdgeStyle;rounded=0;orthogonalLoop=1;jettySize=auto;html=1;entryX=0;entryY=0.5;entryDx=0;entryDy=0;entryPerimeter=0;endArrow=openThin;endFill=0;" edge="1" parent="jPvHXAxI15iKDXhC4mtu-1" target="jPvHXAxI15iKDXhC4mtu-22">
          <mxGeometry relative="1" as="geometry">
            <mxPoint x="150" y="145" as="sourcePoint" />
            <Array as="points">
              <mxPoint x="150" y="145" />
              <mxPoint x="150" y="323" />
            </Array>
          </mxGeometry>
        </mxCell>
        <mxCell id="jPvHXAxI15iKDXhC4mtu-34" style="edgeStyle=orthogonalEdgeStyle;rounded=0;orthogonalLoop=1;jettySize=auto;html=1;exitX=0.5;exitY=0;exitDx=0;exitDy=0;exitPerimeter=0;entryX=0.5;entryY=1;entryDx=0;entryDy=0;entryPerimeter=0;endArrow=openThin;endFill=0;" edge="1" parent="jPvHXAxI15iKDXhC4mtu-1" source="jPvHXAxI15iKDXhC4mtu-23" target="jPvHXAxI15iKDXhC4mtu-7">
          <mxGeometry relative="1" as="geometry" />
        </mxCell>
        <mxCell id="jPvHXAxI15iKDXhC4mtu-35" value="&lt;font style=&quot;font-size: 12px;&quot;&gt;No&lt;/font&gt;" style="edgeLabel;html=1;align=center;verticalAlign=middle;resizable=0;points=[];" vertex="1" connectable="0" parent="jPvHXAxI15iKDXhC4mtu-34">
          <mxGeometry x="0.0153" y="-3" relative="1" as="geometry">
            <mxPoint x="-3" y="-1" as="offset" />
          </mxGeometry>
        </mxCell>
        <mxCell id="jPvHXAxI15iKDXhC4mtu-36" style="edgeStyle=orthogonalEdgeStyle;rounded=0;orthogonalLoop=1;jettySize=auto;html=1;exitX=1;exitY=0.5;exitDx=0;exitDy=0;exitPerimeter=0;entryX=0;entryY=0.5;entryDx=0;entryDy=0;entryPerimeter=0;endArrow=openThin;endFill=0;" edge="1" parent="jPvHXAxI15iKDXhC4mtu-1" source="jPvHXAxI15iKDXhC4mtu-23" target="jPvHXAxI15iKDXhC4mtu-11">
          <mxGeometry relative="1" as="geometry">
            <Array as="points">
              <mxPoint x="450" y="353" />
              <mxPoint x="450" y="119" />
            </Array>
          </mxGeometry>
        </mxCell>
        <mxCell id="jPvHXAxI15iKDXhC4mtu-37" value="Si" style="edgeLabel;html=1;align=center;verticalAlign=middle;resizable=0;points=[];" vertex="1" connectable="0" parent="jPvHXAxI15iKDXhC4mtu-36">
          <mxGeometry x="-0.3954" y="-1" relative="1" as="geometry">
            <mxPoint x="-2" y="-134" as="offset" />
          </mxGeometry>
        </mxCell>
        <mxCell id="jPvHXAxI15iKDXhC4mtu-38" style="edgeStyle=orthogonalEdgeStyle;rounded=0;orthogonalLoop=1;jettySize=auto;html=1;exitX=0.5;exitY=1;exitDx=0;exitDy=0;exitPerimeter=0;entryX=0.5;entryY=0;entryDx=0;entryDy=0;entryPerimeter=0;endArrow=openThin;endFill=0;" edge="1" parent="jPvHXAxI15iKDXhC4mtu-1" source="jPvHXAxI15iKDXhC4mtu-11" target="jPvHXAxI15iKDXhC4mtu-26">
          <mxGeometry relative="1" as="geometry" />
        </mxCell>
        <mxCell id="jPvHXAxI15iKDXhC4mtu-39" style="edgeStyle=orthogonalEdgeStyle;rounded=0;orthogonalLoop=1;jettySize=auto;html=1;exitX=0.5;exitY=1;exitDx=0;exitDy=0;exitPerimeter=0;entryX=0.5;entryY=0;entryDx=0;entryDy=0;entryPerimeter=0;endArrow=openThin;endFill=0;" edge="1" parent="jPvHXAxI15iKDXhC4mtu-1" source="jPvHXAxI15iKDXhC4mtu-17" target="jPvHXAxI15iKDXhC4mtu-29">
          <mxGeometry relative="1" as="geometry" />
        </mxCell>
        <mxCell id="jPvHXAxI15iKDXhC4mtu-40" style="edgeStyle=orthogonalEdgeStyle;rounded=0;orthogonalLoop=1;jettySize=auto;html=1;exitX=1;exitY=0.5;exitDx=0;exitDy=0;exitPerimeter=0;entryX=0.5;entryY=1;entryDx=0;entryDy=0;entryPerimeter=0;endArrow=openThin;endFill=0;" edge="1" parent="jPvHXAxI15iKDXhC4mtu-1" source="jPvHXAxI15iKDXhC4mtu-26" target="jPvHXAxI15iKDXhC4mtu-12">
          <mxGeometry relative="1" as="geometry" />
        </mxCell>
      </root>
    </mxGraphModel>
  </diagram>
</mxfile>
